<?xml version="1.0" encoding="UTF-8"?>
<svg width="200px" height="200px" viewBox="0 0 200 200" version="1.1" xmlns="http://www.w3.org/2000/svg" xmlns:xlink="http://www.w3.org/1999/xlink">
    <!-- Generator: Sketch 50 (54983) - http://www.bohemiancoding.com/sketch -->
    <title>baseline-lock-24px</title>
    <desc>Created with Sketch.</desc>
    <defs></defs>
    <g id="Page-1" stroke="none" stroke-width="1" fill="none" fill-rule="evenodd">
        <g id="baseline-lock-24px">
            <polygon id="Shape" points="23 7.5 121.5 7.5 121.5 106 23 106"></polygon>
            <circle id="Oval-3" fill="#000000" cx="100" cy="100" r="100"></circle>
            <path d="M134.8125,80 L128.96875,80 L128.96875,68.2857143 C128.96875,52.12 115.87875,39 99.75,39 C83.62125,39 70.53125,52.12 70.53125,68.2857143 L70.53125,80 L64.6875,80 C58.259375,80 53,85.2714286 53,91.7142857 L53,150.285714 C53,156.728571 58.259375,162 64.6875,162 L134.8125,162 C141.240625,162 146.5,156.728571 146.5,150.285714 L146.5,91.7142857 C146.5,85.2714286 141.240625,80 134.8125,80 Z M99.75,132.5 C93.2875,132.5 88,127.2125 88,120.75 C88,114.2875 93.2875,109 99.75,109 C106.2125,109 111.5,114.2875 111.5,120.75 C111.5,127.2125 106.2125,132.5 99.75,132.5 Z M118,80.5 L81.5,80.5 L81.5,68.7352941 C81.5,58.6764706 89.6830645,50.5 99.75,50.5 C109.816935,50.5 118,58.6764706 118,68.7352941 L118,80.5 Z" id="Shape" fill="#FFFFFF" fill-rule="nonzero"></path>
        </g>
    </g>
</svg>